{"title":"A Bronx Tale (1993) DVDRip x264 AAC peaSoup","uid":10598105,"size":1036107042,"categoryP":"video","categoryS":"movies","magnet":"?xt=urn:btih:25a981c1e6ab3b79528c0ad370c1ed5a737903fb&amp;dn=A+Bronx+Tale+%281993%29+DVDRip+x264+AAC+peaSoup&amp;tr=udp%3A%2F%2Ftracker.openbittorrent.com%3A80&amp;tr=udp%3A%2F%2Fopen.demonii.com%3A1337&amp;tr=udp%3A%2F%2Ftracker.coppersurfer.tk%3A6969&amp;tr=udp%3A%2F%2Fexodus.desync.com%3A6969","seeders":7,"leechers":1,"uploader":"peaSoup","files":-1,"time":1405880800,"description":"Storyline\n\nGangster Sonny is the big man in the Bronx neighborhood of an Italian small boy named Calogero. A shooting witnessed by the boy (nicknamed C) is the starting point of a lasting bond between the gangster and the boy. Father (bus driver Lorenzo), however, disapproves. C grows up under the wing of both men, torn between his own natural honesty and his fascination with Sonny. C's neighborhood cronies get involved in theft, use of guns, and racial fights. When C falls for an African American girl, things don't get any easier. C's leap to manhood is marked by tragedy, but also by his recognition of the many faces of love.                     &lt;a href=&quot; http://i.imgur.com/hzxTeqM.png&quot; rel=&quot;nofollow&quot; target=&quot;_NEW&quot;&gt; http://i.imgur.com/hzxTeqM.png&lt;/a&gt;                                                      &lt;a href=&quot; http://i.imgur.com/lUnx7ro.png&quot; rel=&quot;nofollow&quot; target=&quot;_NEW&quot;&gt; http://i.imgur.com/lUnx7ro.png&lt;/a&gt;                                                      &lt;a href=&quot; http://i.imgur.com/7ylgq5X.png&quot; rel=&quot;nofollow&quot; target=&quot;_NEW&quot;&gt; http://i.imgur.com/7ylgq5X.png&lt;/a&gt;                                                      &lt;a href=&quot; http://i.imgur.com/7haMhUk.png&quot; rel=&quot;nofollow&quot; target=&quot;_NEW&quot;&gt; http://i.imgur.com/7haMhUk.png&lt;/a&gt;                                                      &lt;a href=&quot; http://i.imgur.com/G4qBQWq.jpg&quot; rel=&quot;nofollow&quot; target=&quot;_NEW&quot;&gt; http://i.imgur.com/G4qBQWq.jpg&lt;/a&gt;                                                       Format                                   : MPEG-4\nFormat profile                           : Base Media / Version 2\nCodec ID                                 : mp42\nFile size                                : 970 MiB\nDuration                                 : 1h 56mn\nOverall bit rate mode                    : Variable\nOverall bit rate                         : 1 164 Kbps\nEncoded date                             : UTC 2014-07-20 15:30:21\nTagged date                              : UTC 2014-07-20 15:43:33\nWriting application                      : HandBrake 0.9.9 2013052900\n\nVideo\nID                                       : 1\nFormat                                   : AVC\nFormat/Info                              : Advanced Video Codec\nFormat profile                           : &lt;a class=&quot;__cf_email__&quot; href=&quot;/cdn-cgi/l/email-protection&quot; data-cfemail=&quot;96dbf7fff8d6daa2b8a6&quot;&gt;[email&amp;#160;protected]&lt;/a&gt;&lt;script cf-hash='f9e31' type=&quot;text/javascript&quot;&gt;\n/* &lt;![CDATA[ */!function(){try{var t=&quot;currentScript&quot;in document?document.currentScript:function(){for(var t=document.getElementsByTagName(&quot;script&quot;),e=t.length;e--;)if(t[e].getAttribute(&quot;cf-hash&quot;))return t[e]}();if(t&amp;&amp;t.previousSibling){var e,r,n,i,c=t.previousSibling,a=c.getAttribute(&quot;data-cfemail&quot;);if(a){for(e=&quot;&quot;,r=parseInt(a.substr(0,2),16),n=2;a.length-n;n+=2)i=parseInt(a.substr(n,2),16)^r,e+=String.fromCharCode(i);e=document.createTextNode(e),c.parentNode.replaceChild(e,c)}}}catch(u){}}();/* ]]&gt; */&lt;/script&gt;\nFormat settings, CABAC                   : Yes\nFormat settings, ReFrames                : 4 frames\nCodec ID                                 : avc1\nCodec ID/Info                            : Advanced Video Coding\nDuration                                 : 1h 56mn\nBit rate                                 : 1 000 Kbps\nWidth                                    : 720 pixels\nHeight                                   : 576 pixels\nDisplay aspect ratio                     : 4:3\nOriginal display aspect ratio            : 4:3\nFrame rate mode                          : Variable\nFrame rate                               : 25.000 fps\nMinimum frame rate                       : 11.919 fps\nMaximum frame rate                       : 25.000 fps\nStandard                                 : PAL\nColor space                              : YUV\nChroma subsampling                       : 4:2:0\nBit depth                                : 8 bits\nScan type                                : Progressive\nBits/(Pixel*Frame)                       : 0.096\nStream size                              : 833 MiB (86%)\nWriting library                          : x264 core 130 r2273 b3065e6\n\n\nAudio\nID                                       : 2\nFormat                                   : AAC\nFormat/Info                              : Advanced Audio Codec\nFormat profile                           : LC\nCodec ID                                 : 40\nDuration                                 : 1h 56mn\nBit rate mode                            : Variable\nBit rate                                 : 160 Kbps\nMaximum bit rate                         : 292 Kbps\nChannel(s)                               : 2 channels\nChannel positions                        : Front: L R\nSampling rate                            : 48.0 KHz\nCompression mode                         : Lossy\nStream size                              : 133 MiB (14%)\nLanguage                                 : English\nEncoded date                             : UTC 2014-07-20 15:30:21\nTagged date                              : UTC 2014-07-20 15:43:32\n","torrent":{"xt":"urn:btih:25a981c1e6ab3b79528c0ad370c1ed5a737903fb","amp;dn":"A+Bronx+Tale+%281993%29+DVDRip+x264+AAC+peaSoup","amp;tr":["udp%3A%2F%2Ftracker.openbittorrent.com%3A80","udp%3A%2F%2Fopen.demonii.com%3A1337","udp%3A%2F%2Ftracker.coppersurfer.tk%3A6969","udp%3A%2F%2Fexodus.desync.com%3A6969"],"infoHash":"25a981c1e6ab3b79528c0ad370c1ed5a737903fb","infoHashBuffer":{"type":"Buffer","data":[37,169,129,193,230,171,59,121,82,140,10,211,112,193,237,90,115,121,3,251]},"announce":[],"urlList":[]}}